<?xml version="1.0" encoding="UTF-8" standalone="no"?>
<!-- Generator: Adobe Illustrator 18.1.0, SVG Export Plug-In . SVG Version: 6.00 Build 0)  -->

<svg
   xmlns:dc="http://purl.org/dc/elements/1.1/"
   xmlns:cc="http://creativecommons.org/ns#"
   xmlns:rdf="http://www.w3.org/1999/02/22-rdf-syntax-ns#"
   xmlns:svg="http://www.w3.org/2000/svg"
   xmlns="http://www.w3.org/2000/svg"
   xmlns:sodipodi="http://sodipodi.sourceforge.net/DTD/sodipodi-0.dtd"
   xmlns:inkscape="http://www.inkscape.org/namespaces/inkscape"
   version="1.0"
   id="Capa_1"
   x="0px"
   y="0px"
   width="4096"
   height="4096"
   viewBox="0 0 3686.4001 3686.4001"
   enable-background="new 0 0 380.8 208.4"
   xml:space="preserve"
   sodipodi:docname="moto-gp-logo.svg"
   inkscape:export-filename="G:\Users\suitedoalex\sites\moto-gp-logo-0.png"
   inkscape:export-xdpi="96"
   inkscape:export-ydpi="96"
   inkscape:version="0.92.2 (5c3e80d, 2017-08-06)"><metadata
     id="metadata45"><rdf:RDF><cc:Work
         rdf:about=""><dc:format>image/svg+xml</dc:format><dc:type
           rdf:resource="http://purl.org/dc/dcmitype/StillImage" /><dc:title></dc:title></cc:Work></rdf:RDF></metadata><defs
     id="defs43" /><sodipodi:namedview
     pagecolor="#ffffff"
     bordercolor="#666666"
     borderopacity="1"
     objecttolerance="10"
     gridtolerance="10"
     guidetolerance="10"
     inkscape:pageopacity="0"
     inkscape:pageshadow="2"
     inkscape:window-width="1600"
     inkscape:window-height="837"
     id="namedview41"
     showgrid="false"
     scale-x="40960.9"
     inkscape:zoom="0.077525497"
     inkscape:cx="467.09205"
     inkscape:cy="1712.6871"
     inkscape:window-x="-8"
     inkscape:window-y="-8"
     inkscape:window-maximized="1"
     inkscape:current-layer="g26" /><g
     id="g26"
     style="fill:#d40000"
     transform="translate(0,3498.8401)"><g
       id="g8"
       style="fill:#db0c4c;fill-opacity:1"
       transform="matrix(8.4053152,0,0,8.4053152,242.82804,-2531.8942)"
       inkscape:export-filename="G:\Users\suitedoalex\sites\moto-gp-logo.png"
       inkscape:export-xdpi="110.56629"
       inkscape:export-ydpi="110.56629"><g
         id="g6"
         style="fill:#db0c4c;fill-opacity:1"><path
           d="m 369.1,99.6 h -3.5 l -1.9,9.2 h -1.4 l 1.9,-9.2 h -3.5 l 0.2,-1.2 h 8.4 z"
           id="path2"
           style="fill:#db0c4c;fill-opacity:1"
           inkscape:connector-curvature="0" /><path
           d="m 370.5,98.5 h 1.9 l 1.4,8.9 v 0 l 5.1,-8.9 h 1.9 l -2.2,10.4 h -1.3 l 2.1,-9.1 v 0 l -5.3,9.1 h -1.3 l -1.4,-9.1 v 0 l -1.8,9.1 h -1.3 z"
           id="path4"
           style="fill:#db0c4c;fill-opacity:1"
           inkscape:connector-curvature="0" /></g></g><g
       id="g24"
       style="fill:#d40000"
       transform="matrix(8.4053152,0,0,8.4053152,242.82804,-2531.8942)"
       inkscape:export-filename="G:\Users\suitedoalex\sites\moto-gp-logo.png"
       inkscape:export-xdpi="110.56629"
       inkscape:export-ydpi="110.56629"><g
         id="g20"
         style="fill:#d40000"><path
           d="M 37.2,18.1 C 42.6,8.1 55,0 65,0 h 70 L 88.1,88.7 H 0 Z"
           id="path10"
           style="clip-rule:evenodd;fill:#1d1d1b;fill-opacity:1;fill-rule:evenodd"
           inkscape:connector-curvature="0" /><path
           d="m 180.3,44.5 c 3.8,-7.1 12.6,-12.8 19.6,-12.8 h 47.9 L 224.7,76 c -3.8,7.1 -12.6,12.8 -19.6,12.8 h -47.9 z"
           id="path12"
           style="clip-rule:evenodd;fill:#1d1d1b;fill-opacity:1;fill-rule:evenodd"
           inkscape:connector-curvature="0" /><path
           d="m 260.6,7 c 2,-3.7 6.7,-6.8 10.4,-6.8 h 25.1 l -13.4,25.1 c -2,3.7 -6.7,6.8 -10.4,6.8 h -25.1 z"
           id="path14"
           style="clip-rule:evenodd;fill:#1d1d1b;fill-opacity:1;fill-rule:evenodd"
           inkscape:connector-curvature="0" /><polygon
           points="120.3,157.8 51.1,157.8 88.1,88.7 157.3,88.7 "
           id="polygon16"
           style="clip-rule:evenodd;fill:#1d1d1b;fill-opacity:1;fill-rule:evenodd" /><path
           d="m 120.3,157.8 h 48.5 l -22.1,41.3 c -2.8,5.2 -9.2,9.4 -14.4,9.4 H 93.2 Z"
           id="path18"
           style="clip-rule:evenodd;fill:#1d1d1b;fill-opacity:1;fill-rule:evenodd"
           inkscape:connector-curvature="0" /></g><path
         d="m 251.8,110.8 -13.3,25 c -0.9,1.6 0.2,2.8 1.9,3 1.2,0.1 2.5,0 4.1,-0.7 l -5.4,10.1 c -1.9,0.5 -2.9,0.8 -4.7,0.8 -7.9,0 -11.6,-5.3 -8.1,-11.9 l 22.3,-42 c 1.5,-2.7 4.9,-5 7.6,-5 h 6.5 l -5.2,9.9 h 6.7 l -5.8,10.8 z m -67.2,1.8 -0.2,0.5 -5.5,10.3 -10.3,19.4 c -0.9,1.6 -2.4,3.1 -4.1,4 -1.2,0.6 -2.4,1 -3.6,1 h -6.7 l 13,-24.4 5.8,-10.8 c 0,-0.1 0.1,-0.3 0.2,-0.4 0.6,-1.5 -0.1,-2.6 -1.6,-2.6 -1.7,0 -3.7,1.3 -4.6,3 l -5.7,10.8 -10.3,19.4 c -1.5,2.8 -4.9,5 -7.7,5 h -6.7 l 18.7,-35.2 c 4,-8.2 8.7,-13.8 22.3,-13.8 h 17.7 c 6.8,0 12.4,3.9 7.1,13.9 l -16.1,30.2 c -1.5,2.8 -4.9,5 -7.7,5 h -6.7 l 13,-24.4 5.7,-10.8 c 0.9,-1.7 0.3,-3 -1.4,-3 -1.7,-0.1 -3.7,1.3 -4.6,2.9 z m 138.4,-2.1 -4.2,7.9 h -11.3 l 3.4,-6.4 c 0.9,-1.6 0.3,-3 -1.4,-3 -1.6,0 -3.7,1.3 -4.5,3 l -11.4,21.4 -1,1.9 c -0.9,1.6 -0.2,3 1.4,3 1.6,0 3.7,-1.1 5.4,-4.7 l 1.5,-2.9 H 298 l 4.6,-8.5 h 14.2 l -7.8,14.6 v 0.2 c -3.5,6.6 -12.7,11.9 -20.6,11.9 -7.9,0 -11.4,-5.3 -7.9,-11.9 l 1.9,-3.6 12.3,-23.1 c 3.5,-6.6 12.7,-11.9 20.6,-11.9 7.9,0 11.4,5.3 7.9,11.9 z m -63.4,24.8 c -0.9,1.6 -0.2,3 1.4,3 1.6,0 3.7,-1.3 4.5,-3 l 12.3,-23.2 c 0.9,-1.6 0.2,-3 -1.4,-3 -1.6,0 -3.7,1.3 -4.5,3 z M 290,110.6 276.1,136.7 276,137 c -3.5,6.6 -12.7,11.9 -20.6,11.9 -7.9,0 -11.4,-5.3 -7.9,-11.9 l 14.2,-26.6 c 3.5,-6.6 12.7,-11.9 20.6,-11.9 7.9,0 11.4,5.3 7.9,11.9 z m -83.8,24.7 c -0.9,1.6 -0.2,3 1.4,3 1.6,0 3.7,-1.3 4.6,-3 l 12.4,-23.2 c 0.9,-1.6 0.2,-3 -1.4,-3 -1.6,0 -3.7,1.3 -4.6,3 z m 29.9,-24.7 -13.9,26.1 -0.1,0.2 c -3.5,6.6 -12.7,11.9 -20.6,11.9 -7.9,0 -11.4,-5.3 -7.9,-11.9 l 14.2,-26.6 c 3.5,-6.6 12.7,-11.9 20.6,-11.9 7.9,0 11.4,5.3 7.9,11.9 z m 101.9,1.5 -0.5,1 -5,9.3 h 2 c 2.2,0 4.9,-1.8 6.1,-4 L 344,112 c 0.9,-1.6 0.2,-3 -1.4,-3 -1.7,0.1 -3.7,1.4 -4.6,3.1 z m -11.1,20.7 -5.3,10 c -1.5,2.7 -4.9,5 -7.6,5 h -6.6 l 14.3,-26.8 4.3,-8.1 c 6.1,-11.9 13.6,-14.5 22.3,-14.5 9.8,0 11.1,6.5 6.8,14.6 l -0.3,0.6 -3.7,7 -0.2,0.5 c -3.5,6.7 -12.9,12.1 -21,12.1 -1.1,-0.1 -2.1,-0.2 -3,-0.4 z"
         id="path22"
         style="fill:#db0c4c;fill-opacity:1"
         inkscape:connector-curvature="0" /></g></g><g
     id="g28"
     style="fill:#d40000"
     transform="translate(0,3498.8401)" /><g
     id="g30"
     style="fill:#d40000"
     transform="translate(0,3498.8401)" /><g
     id="g32"
     style="fill:#d40000"
     transform="translate(0,3498.8401)" /><g
     id="g34"
     style="fill:#d40000"
     transform="translate(0,3498.8401)" /><g
     id="g36"
     style="fill:#d40000"
     transform="translate(0,3498.8401)" /><g
     id="g38"
     style="fill:#d40000"
     transform="translate(0,3498.8401)" /></svg>